<svg xmlns="http://www.w3.org/2000/svg" width="800" height="260" style="font-family:Segoe UI,PingFang SC,sans-serif"><rect width="800" height="260" rx="12" fill="#141a2b"/><text x="70" y="18" fill="#e6e9f2" font-size="14" font-weight="bold">⭐ Star 增长趋势 · 当前 11</text><line x1="70" y1="220.0" x2="780" y2="220.0" stroke="#232b40"/><text x="62" y="224.0" fill="#8b93a7" font-size="11" text-anchor="end">0</text><line x1="70" y1="156.7" x2="780" y2="156.7" stroke="#232b40"/><text x="62" y="160.7" fill="#8b93a7" font-size="11" text-anchor="end">4</text><line x1="70" y1="93.3" x2="780" y2="93.3" stroke="#232b40"/><text x="62" y="97.3" fill="#8b93a7" font-size="11" text-anchor="end">8</text><line x1="70" y1="30.0" x2="780" y2="30.0" stroke="#232b40"/><text x="62" y="34.0" fill="#8b93a7" font-size="11" text-anchor="end">12</text><polyline points="70.0,220.0 86.5,204.2 103.0,188.3 119.5,172.5 136.0,140.8 152.6,140.8 169.1,140.8 185.6,125.0 202.1,125.0 218.6,125.0 235.1,125.0 251.6,125.0 268.1,125.0 284.7,125.0 301.2,125.0 317.7,125.0 334.2,125.0 350.7,109.2 367.2,109.2 383.7,109.2 400.2,109.2 416.7,109.2 433.3,109.2 449.8,77.5 466.3,77.5 482.8,77.5 499.3,77.5 515.8,77.5 532.3,77.5 548.8,77.5 565.3,77.5 581.9,77.5 598.4,77.5 614.9,77.5 631.4,77.5 647.9,61.7 664.4,45.8 680.9,30.0 697.4,30.0 714.0,30.0 730.5,30.0 747.0,30.0 763.5,30.0 780.0,45.8" fill="none" stroke="#6c8cff" stroke-width="2.5"/><circle cx="70.0" cy="220.0" r="3.5" fill="#6c8cff"/><circle cx="86.5" cy="204.2" r="3.5" fill="#6c8cff"/><circle cx="103.0" cy="188.3" r="3.5" fill="#6c8cff"/><circle cx="119.5" cy="172.5" r="3.5" fill="#6c8cff"/><circle cx="136.0" cy="140.8" r="3.5" fill="#6c8cff"/><circle cx="152.6" cy="140.8" r="3.5" fill="#6c8cff"/><circle cx="169.1" cy="140.8" r="3.5" fill="#6c8cff"/><circle cx="185.6" cy="125.0" r="3.5" fill="#6c8cff"/><circle cx="202.1" cy="125.0" r="3.5" fill="#6c8cff"/><circle cx="218.6" cy="125.0" r="3.5" fill="#6c8cff"/><circle cx="235.1" cy="125.0" r="3.5" fill="#6c8cff"/><circle cx="251.6" cy="125.0" r="3.5" fill="#6c8cff"/><circle cx="268.1" cy="125.0" r="3.5" fill="#6c8cff"/><circle cx="284.7" cy="125.0" r="3.5" fill="#6c8cff"/><circle cx="301.2" cy="125.0" r="3.5" fill="#6c8cff"/><circle cx="317.7" cy="125.0" r="3.5" fill="#6c8cff"/><circle cx="334.2" cy="125.0" r="3.5" fill="#6c8cff"/><circle cx="350.7" cy="109.2" r="3.5" fill="#6c8cff"/><circle cx="367.2" cy="109.2" r="3.5" fill="#6c8cff"/><circle cx="383.7" cy="109.2" r="3.5" fill="#6c8cff"/><circle cx="400.2" cy="109.2" r="3.5" fill="#6c8cff"/><circle cx="416.7" cy="109.2" r="3.5" fill="#6c8cff"/><circle cx="433.3" cy="109.2" r="3.5" fill="#6c8cff"/><circle cx="449.8" cy="77.5" r="3.5" fill="#6c8cff"/><circle cx="466.3" cy="77.5" r="3.5" fill="#6c8cff"/><circle cx="482.8" cy="77.5" r="3.5" fill="#6c8cff"/><circle cx="499.3" cy="77.5" r="3.5" fill="#6c8cff"/><circle cx="515.8" cy="77.5" r="3.5" fill="#6c8cff"/><circle cx="532.3" cy="77.5" r="3.5" fill="#6c8cff"/><circle cx="548.8" cy="77.5" r="3.5" fill="#6c8cff"/><circle cx="565.3" cy="77.5" r="3.5" fill="#6c8cff"/><circle cx="581.9" cy="77.5" r="3.5" fill="#6c8cff"/><circle cx="598.4" cy="77.5" r="3.5" fill="#6c8cff"/><circle cx="614.9" cy="77.5" r="3.5" fill="#6c8cff"/><circle cx="631.4" cy="77.5" r="3.5" fill="#6c8cff"/><circle cx="647.9" cy="61.7" r="3.5" fill="#6c8cff"/><circle cx="664.4" cy="45.8" r="3.5" fill="#6c8cff"/><circle cx="680.9" cy="30.0" r="3.5" fill="#6c8cff"/><circle cx="697.4" cy="30.0" r="3.5" fill="#6c8cff"/><circle cx="714.0" cy="30.0" r="3.5" fill="#6c8cff"/><circle cx="730.5" cy="30.0" r="3.5" fill="#6c8cff"/><circle cx="747.0" cy="30.0" r="3.5" fill="#6c8cff"/><circle cx="763.5" cy="30.0" r="3.5" fill="#6c8cff"/><circle cx="780.0" cy="45.8" r="3.5" fill="#6c8cff"/><text x="70.0" y="246" fill="#8b93a7" font-size="11" text-anchor="middle">2026-08-22</text><text x="433.3" y="246" fill="#8b93a7" font-size="11" text-anchor="middle">2026-09-16</text><text x="780.0" y="246" fill="#8b93a7" font-size="11" text-anchor="middle">2026-10-07</text><text x="780" y="246" fill="#8b93a7" font-size="11" text-anchor="end">由 GitHub Actions 每日自动更新</text></svg>