<svg xmlns="http://www.w3.org/2000/svg" width="800" height="260" style="font-family:Segoe UI,PingFang SC,sans-serif"><rect width="800" height="260" rx="12" fill="#141a2b"/><text x="70" y="18" fill="#e6e9f2" font-size="14" font-weight="bold">⭐ Star 增长趋势 · 当前 9</text><line x1="70" y1="220.0" x2="780" y2="220.0" stroke="#232b40"/><text x="62" y="224.0" fill="#8b93a7" font-size="11" text-anchor="end">0</text><line x1="70" y1="156.7" x2="780" y2="156.7" stroke="#232b40"/><text x="62" y="160.7" fill="#8b93a7" font-size="11" text-anchor="end">3</text><line x1="70" y1="93.3" x2="780" y2="93.3" stroke="#232b40"/><text x="62" y="97.3" fill="#8b93a7" font-size="11" text-anchor="end">6</text><line x1="70" y1="30.0" x2="780" y2="30.0" stroke="#232b40"/><text x="62" y="34.0" fill="#8b93a7" font-size="11" text-anchor="end">9</text><polyline points="70.0,220.0 97.3,198.9 124.6,177.8 151.9,156.7 179.2,114.4 206.5,114.4 233.8,114.4 261.2,93.3 288.5,93.3 315.8,93.3 343.1,93.3 370.4,93.3 397.7,93.3 425.0,93.3 452.3,93.3 479.6,93.3 506.9,93.3 534.2,72.2 561.5,72.2 588.8,72.2 616.2,72.2 643.5,72.2 670.8,72.2 698.1,30.0 725.4,30.0 752.7,30.0 780.0,30.0" fill="none" stroke="#6c8cff" stroke-width="2.5"/><circle cx="70.0" cy="220.0" r="3.5" fill="#6c8cff"/><circle cx="97.3" cy="198.9" r="3.5" fill="#6c8cff"/><circle cx="124.6" cy="177.8" r="3.5" fill="#6c8cff"/><circle cx="151.9" cy="156.7" r="3.5" fill="#6c8cff"/><circle cx="179.2" cy="114.4" r="3.5" fill="#6c8cff"/><circle cx="206.5" cy="114.4" r="3.5" fill="#6c8cff"/><circle cx="233.8" cy="114.4" r="3.5" fill="#6c8cff"/><circle cx="261.2" cy="93.3" r="3.5" fill="#6c8cff"/><circle cx="288.5" cy="93.3" r="3.5" fill="#6c8cff"/><circle cx="315.8" cy="93.3" r="3.5" fill="#6c8cff"/><circle cx="343.1" cy="93.3" r="3.5" fill="#6c8cff"/><circle cx="370.4" cy="93.3" r="3.5" fill="#6c8cff"/><circle cx="397.7" cy="93.3" r="3.5" fill="#6c8cff"/><circle cx="425.0" cy="93.3" r="3.5" fill="#6c8cff"/><circle cx="452.3" cy="93.3" r="3.5" fill="#6c8cff"/><circle cx="479.6" cy="93.3" r="3.5" fill="#6c8cff"/><circle cx="506.9" cy="93.3" r="3.5" fill="#6c8cff"/><circle cx="534.2" cy="72.2" r="3.5" fill="#6c8cff"/><circle cx="561.5" cy="72.2" r="3.5" fill="#6c8cff"/><circle cx="588.8" cy="72.2" r="3.5" fill="#6c8cff"/><circle cx="616.2" cy="72.2" r="3.5" fill="#6c8cff"/><circle cx="643.5" cy="72.2" r="3.5" fill="#6c8cff"/><circle cx="670.8" cy="72.2" r="3.5" fill="#6c8cff"/><circle cx="698.1" cy="30.0" r="3.5" fill="#6c8cff"/><circle cx="725.4" cy="30.0" r="3.5" fill="#6c8cff"/><circle cx="752.7" cy="30.0" r="3.5" fill="#6c8cff"/><circle cx="780.0" cy="30.0" r="3.5" fill="#6c8cff"/><text x="70.0" y="246" fill="#8b93a7" font-size="11" text-anchor="middle">2026-08-22</text><text x="425.0" y="246" fill="#8b93a7" font-size="11" text-anchor="middle">2026-09-07</text><text x="780.0" y="246" fill="#8b93a7" font-size="11" text-anchor="middle">2026-09-20</text><text x="780" y="246" fill="#8b93a7" font-size="11" text-anchor="end">由 GitHub Actions 每日自动更新</text></svg>