<svg xmlns="http://www.w3.org/2000/svg" width="800" height="260" style="font-family:Segoe UI,PingFang SC,sans-serif"><rect width="800" height="260" rx="12" fill="#141a2b"/><text x="70" y="18" fill="#e6e9f2" font-size="14" font-weight="bold">⭐ Star 增长趋势 · 当前 11</text><line x1="70" y1="220.0" x2="780" y2="220.0" stroke="#232b40"/><text x="62" y="224.0" fill="#8b93a7" font-size="11" text-anchor="end">0</text><line x1="70" y1="156.7" x2="780" y2="156.7" stroke="#232b40"/><text x="62" y="160.7" fill="#8b93a7" font-size="11" text-anchor="end">4</text><line x1="70" y1="93.3" x2="780" y2="93.3" stroke="#232b40"/><text x="62" y="97.3" fill="#8b93a7" font-size="11" text-anchor="end">7</text><line x1="70" y1="30.0" x2="780" y2="30.0" stroke="#232b40"/><text x="62" y="34.0" fill="#8b93a7" font-size="11" text-anchor="end">11</text><polyline points="70.0,220.0 89.7,202.7 109.4,185.5 129.2,168.2 148.9,133.6 168.6,133.6 188.3,133.6 208.1,116.4 227.8,116.4 247.5,116.4 267.2,116.4 286.9,116.4 306.7,116.4 326.4,116.4 346.1,116.4 365.8,116.4 385.6,116.4 405.3,99.1 425.0,99.1 444.7,99.1 464.4,99.1 484.2,99.1 503.9,99.1 523.6,64.5 543.3,64.5 563.1,64.5 582.8,64.5 602.5,64.5 622.2,64.5 641.9,64.5 661.7,64.5 681.4,64.5 701.1,64.5 720.8,64.5 740.6,64.5 760.3,47.3 780.0,30.0" fill="none" stroke="#6c8cff" stroke-width="2.5"/><circle cx="70.0" cy="220.0" r="3.5" fill="#6c8cff"/><circle cx="89.7" cy="202.7" r="3.5" fill="#6c8cff"/><circle cx="109.4" cy="185.5" r="3.5" fill="#6c8cff"/><circle cx="129.2" cy="168.2" r="3.5" fill="#6c8cff"/><circle cx="148.9" cy="133.6" r="3.5" fill="#6c8cff"/><circle cx="168.6" cy="133.6" r="3.5" fill="#6c8cff"/><circle cx="188.3" cy="133.6" r="3.5" fill="#6c8cff"/><circle cx="208.1" cy="116.4" r="3.5" fill="#6c8cff"/><circle cx="227.8" cy="116.4" r="3.5" fill="#6c8cff"/><circle cx="247.5" cy="116.4" r="3.5" fill="#6c8cff"/><circle cx="267.2" cy="116.4" r="3.5" fill="#6c8cff"/><circle cx="286.9" cy="116.4" r="3.5" fill="#6c8cff"/><circle cx="306.7" cy="116.4" r="3.5" fill="#6c8cff"/><circle cx="326.4" cy="116.4" r="3.5" fill="#6c8cff"/><circle cx="346.1" cy="116.4" r="3.5" fill="#6c8cff"/><circle cx="365.8" cy="116.4" r="3.5" fill="#6c8cff"/><circle cx="385.6" cy="116.4" r="3.5" fill="#6c8cff"/><circle cx="405.3" cy="99.1" r="3.5" fill="#6c8cff"/><circle cx="425.0" cy="99.1" r="3.5" fill="#6c8cff"/><circle cx="444.7" cy="99.1" r="3.5" fill="#6c8cff"/><circle cx="464.4" cy="99.1" r="3.5" fill="#6c8cff"/><circle cx="484.2" cy="99.1" r="3.5" fill="#6c8cff"/><circle cx="503.9" cy="99.1" r="3.5" fill="#6c8cff"/><circle cx="523.6" cy="64.5" r="3.5" fill="#6c8cff"/><circle cx="543.3" cy="64.5" r="3.5" fill="#6c8cff"/><circle cx="563.1" cy="64.5" r="3.5" fill="#6c8cff"/><circle cx="582.8" cy="64.5" r="3.5" fill="#6c8cff"/><circle cx="602.5" cy="64.5" r="3.5" fill="#6c8cff"/><circle cx="622.2" cy="64.5" r="3.5" fill="#6c8cff"/><circle cx="641.9" cy="64.5" r="3.5" fill="#6c8cff"/><circle cx="661.7" cy="64.5" r="3.5" fill="#6c8cff"/><circle cx="681.4" cy="64.5" r="3.5" fill="#6c8cff"/><circle cx="701.1" cy="64.5" r="3.5" fill="#6c8cff"/><circle cx="720.8" cy="64.5" r="3.5" fill="#6c8cff"/><circle cx="740.6" cy="64.5" r="3.5" fill="#6c8cff"/><circle cx="760.3" cy="47.3" r="3.5" fill="#6c8cff"/><circle cx="780.0" cy="30.0" r="3.5" fill="#6c8cff"/><text x="70.0" y="246" fill="#8b93a7" font-size="11" text-anchor="middle">2026-08-22</text><text x="425.0" y="246" fill="#8b93a7" font-size="11" text-anchor="middle">2026-09-12</text><text x="780.0" y="246" fill="#8b93a7" font-size="11" text-anchor="middle">2026-09-30</text><text x="780" y="246" fill="#8b93a7" font-size="11" text-anchor="end">由 GitHub Actions 每日自动更新</text></svg>