<svg xmlns="http://www.w3.org/2000/svg" width="800" height="260" style="font-family:Segoe UI,PingFang SC,sans-serif"><rect width="800" height="260" rx="12" fill="#141a2b"/><text x="70" y="18" fill="#e6e9f2" font-size="14" font-weight="bold">⭐ Star 增长趋势 · 当前 11</text><line x1="70" y1="220.0" x2="780" y2="220.0" stroke="#232b40"/><text x="62" y="224.0" fill="#8b93a7" font-size="11" text-anchor="end">0</text><line x1="70" y1="156.7" x2="780" y2="156.7" stroke="#232b40"/><text x="62" y="160.7" fill="#8b93a7" font-size="11" text-anchor="end">4</text><line x1="70" y1="93.3" x2="780" y2="93.3" stroke="#232b40"/><text x="62" y="97.3" fill="#8b93a7" font-size="11" text-anchor="end">8</text><line x1="70" y1="30.0" x2="780" y2="30.0" stroke="#232b40"/><text x="62" y="34.0" fill="#8b93a7" font-size="11" text-anchor="end">12</text><polyline points="70.0,220.0 86.1,204.2 102.3,188.3 118.4,172.5 134.5,140.8 150.7,140.8 166.8,140.8 183.0,125.0 199.1,125.0 215.2,125.0 231.4,125.0 247.5,125.0 263.6,125.0 279.8,125.0 295.9,125.0 312.0,125.0 328.2,125.0 344.3,109.2 360.5,109.2 376.6,109.2 392.7,109.2 408.9,109.2 425.0,109.2 441.1,77.5 457.3,77.5 473.4,77.5 489.5,77.5 505.7,77.5 521.8,77.5 538.0,77.5 554.1,77.5 570.2,77.5 586.4,77.5 602.5,77.5 618.6,77.5 634.8,61.7 650.9,45.8 667.0,30.0 683.2,30.0 699.3,30.0 715.5,30.0 731.6,30.0 747.7,30.0 763.9,45.8 780.0,45.8" fill="none" stroke="#6c8cff" stroke-width="2.5"/><circle cx="70.0" cy="220.0" r="3.5" fill="#6c8cff"/><circle cx="86.1" cy="204.2" r="3.5" fill="#6c8cff"/><circle cx="102.3" cy="188.3" r="3.5" fill="#6c8cff"/><circle cx="118.4" cy="172.5" r="3.5" fill="#6c8cff"/><circle cx="134.5" cy="140.8" r="3.5" fill="#6c8cff"/><circle cx="150.7" cy="140.8" r="3.5" fill="#6c8cff"/><circle cx="166.8" cy="140.8" r="3.5" fill="#6c8cff"/><circle cx="183.0" cy="125.0" r="3.5" fill="#6c8cff"/><circle cx="199.1" cy="125.0" r="3.5" fill="#6c8cff"/><circle cx="215.2" cy="125.0" r="3.5" fill="#6c8cff"/><circle cx="231.4" cy="125.0" r="3.5" fill="#6c8cff"/><circle cx="247.5" cy="125.0" r="3.5" fill="#6c8cff"/><circle cx="263.6" cy="125.0" r="3.5" fill="#6c8cff"/><circle cx="279.8" cy="125.0" r="3.5" fill="#6c8cff"/><circle cx="295.9" cy="125.0" r="3.5" fill="#6c8cff"/><circle cx="312.0" cy="125.0" r="3.5" fill="#6c8cff"/><circle cx="328.2" cy="125.0" r="3.5" fill="#6c8cff"/><circle cx="344.3" cy="109.2" r="3.5" fill="#6c8cff"/><circle cx="360.5" cy="109.2" r="3.5" fill="#6c8cff"/><circle cx="376.6" cy="109.2" r="3.5" fill="#6c8cff"/><circle cx="392.7" cy="109.2" r="3.5" fill="#6c8cff"/><circle cx="408.9" cy="109.2" r="3.5" fill="#6c8cff"/><circle cx="425.0" cy="109.2" r="3.5" fill="#6c8cff"/><circle cx="441.1" cy="77.5" r="3.5" fill="#6c8cff"/><circle cx="457.3" cy="77.5" r="3.5" fill="#6c8cff"/><circle cx="473.4" cy="77.5" r="3.5" fill="#6c8cff"/><circle cx="489.5" cy="77.5" r="3.5" fill="#6c8cff"/><circle cx="505.7" cy="77.5" r="3.5" fill="#6c8cff"/><circle cx="521.8" cy="77.5" r="3.5" fill="#6c8cff"/><circle cx="538.0" cy="77.5" r="3.5" fill="#6c8cff"/><circle cx="554.1" cy="77.5" r="3.5" fill="#6c8cff"/><circle cx="570.2" cy="77.5" r="3.5" fill="#6c8cff"/><circle cx="586.4" cy="77.5" r="3.5" fill="#6c8cff"/><circle cx="602.5" cy="77.5" r="3.5" fill="#6c8cff"/><circle cx="618.6" cy="77.5" r="3.5" fill="#6c8cff"/><circle cx="634.8" cy="61.7" r="3.5" fill="#6c8cff"/><circle cx="650.9" cy="45.8" r="3.5" fill="#6c8cff"/><circle cx="667.0" cy="30.0" r="3.5" fill="#6c8cff"/><circle cx="683.2" cy="30.0" r="3.5" fill="#6c8cff"/><circle cx="699.3" cy="30.0" r="3.5" fill="#6c8cff"/><circle cx="715.5" cy="30.0" r="3.5" fill="#6c8cff"/><circle cx="731.6" cy="30.0" r="3.5" fill="#6c8cff"/><circle cx="747.7" cy="30.0" r="3.5" fill="#6c8cff"/><circle cx="763.9" cy="45.8" r="3.5" fill="#6c8cff"/><circle cx="780.0" cy="45.8" r="3.5" fill="#6c8cff"/><text x="70.0" y="246" fill="#8b93a7" font-size="11" text-anchor="middle">2026-08-22</text><text x="425.0" y="246" fill="#8b93a7" font-size="11" text-anchor="middle">2026-09-16</text><text x="780.0" y="246" fill="#8b93a7" font-size="11" text-anchor="middle">2026-10-08</text><text x="780" y="246" fill="#8b93a7" font-size="11" text-anchor="end">由 GitHub Actions 每日自动更新</text></svg>