<svg xmlns="http://www.w3.org/2000/svg" width="800" height="260" style="font-family:Segoe UI,PingFang SC,sans-serif"><rect width="800" height="260" rx="12" fill="#141a2b"/><text x="70" y="18" fill="#e6e9f2" font-size="14" font-weight="bold">⭐ Star 增长趋势 · 当前 9</text><line x1="70" y1="220.0" x2="780" y2="220.0" stroke="#232b40"/><text x="62" y="224.0" fill="#8b93a7" font-size="11" text-anchor="end">0</text><line x1="70" y1="156.7" x2="780" y2="156.7" stroke="#232b40"/><text x="62" y="160.7" fill="#8b93a7" font-size="11" text-anchor="end">3</text><line x1="70" y1="93.3" x2="780" y2="93.3" stroke="#232b40"/><text x="62" y="97.3" fill="#8b93a7" font-size="11" text-anchor="end">6</text><line x1="70" y1="30.0" x2="780" y2="30.0" stroke="#232b40"/><text x="62" y="34.0" fill="#8b93a7" font-size="11" text-anchor="end">9</text><polyline points="70.0,220.0 93.7,198.9 117.3,177.8 141.0,156.7 164.7,114.4 188.3,114.4 212.0,114.4 235.7,93.3 259.3,93.3 283.0,93.3 306.7,93.3 330.3,93.3 354.0,93.3 377.7,93.3 401.3,93.3 425.0,93.3 448.7,93.3 472.3,72.2 496.0,72.2 519.7,72.2 543.3,72.2 567.0,72.2 590.7,72.2 614.3,30.0 638.0,30.0 661.7,30.0 685.3,30.0 709.0,30.0 732.7,30.0 756.3,30.0 780.0,30.0" fill="none" stroke="#6c8cff" stroke-width="2.5"/><circle cx="70.0" cy="220.0" r="3.5" fill="#6c8cff"/><circle cx="93.7" cy="198.9" r="3.5" fill="#6c8cff"/><circle cx="117.3" cy="177.8" r="3.5" fill="#6c8cff"/><circle cx="141.0" cy="156.7" r="3.5" fill="#6c8cff"/><circle cx="164.7" cy="114.4" r="3.5" fill="#6c8cff"/><circle cx="188.3" cy="114.4" r="3.5" fill="#6c8cff"/><circle cx="212.0" cy="114.4" r="3.5" fill="#6c8cff"/><circle cx="235.7" cy="93.3" r="3.5" fill="#6c8cff"/><circle cx="259.3" cy="93.3" r="3.5" fill="#6c8cff"/><circle cx="283.0" cy="93.3" r="3.5" fill="#6c8cff"/><circle cx="306.7" cy="93.3" r="3.5" fill="#6c8cff"/><circle cx="330.3" cy="93.3" r="3.5" fill="#6c8cff"/><circle cx="354.0" cy="93.3" r="3.5" fill="#6c8cff"/><circle cx="377.7" cy="93.3" r="3.5" fill="#6c8cff"/><circle cx="401.3" cy="93.3" r="3.5" fill="#6c8cff"/><circle cx="425.0" cy="93.3" r="3.5" fill="#6c8cff"/><circle cx="448.7" cy="93.3" r="3.5" fill="#6c8cff"/><circle cx="472.3" cy="72.2" r="3.5" fill="#6c8cff"/><circle cx="496.0" cy="72.2" r="3.5" fill="#6c8cff"/><circle cx="519.7" cy="72.2" r="3.5" fill="#6c8cff"/><circle cx="543.3" cy="72.2" r="3.5" fill="#6c8cff"/><circle cx="567.0" cy="72.2" r="3.5" fill="#6c8cff"/><circle cx="590.7" cy="72.2" r="3.5" fill="#6c8cff"/><circle cx="614.3" cy="30.0" r="3.5" fill="#6c8cff"/><circle cx="638.0" cy="30.0" r="3.5" fill="#6c8cff"/><circle cx="661.7" cy="30.0" r="3.5" fill="#6c8cff"/><circle cx="685.3" cy="30.0" r="3.5" fill="#6c8cff"/><circle cx="709.0" cy="30.0" r="3.5" fill="#6c8cff"/><circle cx="732.7" cy="30.0" r="3.5" fill="#6c8cff"/><circle cx="756.3" cy="30.0" r="3.5" fill="#6c8cff"/><circle cx="780.0" cy="30.0" r="3.5" fill="#6c8cff"/><text x="70.0" y="246" fill="#8b93a7" font-size="11" text-anchor="middle">2026-08-22</text><text x="425.0" y="246" fill="#8b93a7" font-size="11" text-anchor="middle">2026-09-09</text><text x="780.0" y="246" fill="#8b93a7" font-size="11" text-anchor="middle">2026-09-24</text><text x="780" y="246" fill="#8b93a7" font-size="11" text-anchor="end">由 GitHub Actions 每日自动更新</text></svg>