<svg xmlns="http://www.w3.org/2000/svg" width="800" height="260" style="font-family:Segoe UI,PingFang SC,sans-serif"><rect width="800" height="260" rx="12" fill="#141a2b"/><text x="70" y="18" fill="#e6e9f2" font-size="14" font-weight="bold">⭐ Star 增长趋势 · 当前 9</text><line x1="70" y1="220.0" x2="780" y2="220.0" stroke="#232b40"/><text x="62" y="224.0" fill="#8b93a7" font-size="11" text-anchor="end">0</text><line x1="70" y1="156.7" x2="780" y2="156.7" stroke="#232b40"/><text x="62" y="160.7" fill="#8b93a7" font-size="11" text-anchor="end">3</text><line x1="70" y1="93.3" x2="780" y2="93.3" stroke="#232b40"/><text x="62" y="97.3" fill="#8b93a7" font-size="11" text-anchor="end">6</text><line x1="70" y1="30.0" x2="780" y2="30.0" stroke="#232b40"/><text x="62" y="34.0" fill="#8b93a7" font-size="11" text-anchor="end">9</text><polyline points="70.0,220.0 90.9,198.9 111.8,177.8 132.6,156.7 153.5,114.4 174.4,114.4 195.3,114.4 216.2,93.3 237.1,93.3 257.9,93.3 278.8,93.3 299.7,93.3 320.6,93.3 341.5,93.3 362.4,93.3 383.2,93.3 404.1,93.3 425.0,72.2 445.9,72.2 466.8,72.2 487.6,72.2 508.5,72.2 529.4,72.2 550.3,30.0 571.2,30.0 592.1,30.0 612.9,30.0 633.8,30.0 654.7,30.0 675.6,30.0 696.5,30.0 717.4,30.0 738.2,30.0 759.1,30.0 780.0,30.0" fill="none" stroke="#6c8cff" stroke-width="2.5"/><circle cx="70.0" cy="220.0" r="3.5" fill="#6c8cff"/><circle cx="90.9" cy="198.9" r="3.5" fill="#6c8cff"/><circle cx="111.8" cy="177.8" r="3.5" fill="#6c8cff"/><circle cx="132.6" cy="156.7" r="3.5" fill="#6c8cff"/><circle cx="153.5" cy="114.4" r="3.5" fill="#6c8cff"/><circle cx="174.4" cy="114.4" r="3.5" fill="#6c8cff"/><circle cx="195.3" cy="114.4" r="3.5" fill="#6c8cff"/><circle cx="216.2" cy="93.3" r="3.5" fill="#6c8cff"/><circle cx="237.1" cy="93.3" r="3.5" fill="#6c8cff"/><circle cx="257.9" cy="93.3" r="3.5" fill="#6c8cff"/><circle cx="278.8" cy="93.3" r="3.5" fill="#6c8cff"/><circle cx="299.7" cy="93.3" r="3.5" fill="#6c8cff"/><circle cx="320.6" cy="93.3" r="3.5" fill="#6c8cff"/><circle cx="341.5" cy="93.3" r="3.5" fill="#6c8cff"/><circle cx="362.4" cy="93.3" r="3.5" fill="#6c8cff"/><circle cx="383.2" cy="93.3" r="3.5" fill="#6c8cff"/><circle cx="404.1" cy="93.3" r="3.5" fill="#6c8cff"/><circle cx="425.0" cy="72.2" r="3.5" fill="#6c8cff"/><circle cx="445.9" cy="72.2" r="3.5" fill="#6c8cff"/><circle cx="466.8" cy="72.2" r="3.5" fill="#6c8cff"/><circle cx="487.6" cy="72.2" r="3.5" fill="#6c8cff"/><circle cx="508.5" cy="72.2" r="3.5" fill="#6c8cff"/><circle cx="529.4" cy="72.2" r="3.5" fill="#6c8cff"/><circle cx="550.3" cy="30.0" r="3.5" fill="#6c8cff"/><circle cx="571.2" cy="30.0" r="3.5" fill="#6c8cff"/><circle cx="592.1" cy="30.0" r="3.5" fill="#6c8cff"/><circle cx="612.9" cy="30.0" r="3.5" fill="#6c8cff"/><circle cx="633.8" cy="30.0" r="3.5" fill="#6c8cff"/><circle cx="654.7" cy="30.0" r="3.5" fill="#6c8cff"/><circle cx="675.6" cy="30.0" r="3.5" fill="#6c8cff"/><circle cx="696.5" cy="30.0" r="3.5" fill="#6c8cff"/><circle cx="717.4" cy="30.0" r="3.5" fill="#6c8cff"/><circle cx="738.2" cy="30.0" r="3.5" fill="#6c8cff"/><circle cx="759.1" cy="30.0" r="3.5" fill="#6c8cff"/><circle cx="780.0" cy="30.0" r="3.5" fill="#6c8cff"/><text x="70.0" y="246" fill="#8b93a7" font-size="11" text-anchor="middle">2026-08-22</text><text x="425.0" y="246" fill="#8b93a7" font-size="11" text-anchor="middle">2026-09-11</text><text x="780.0" y="246" fill="#8b93a7" font-size="11" text-anchor="middle">2026-09-28</text><text x="780" y="246" fill="#8b93a7" font-size="11" text-anchor="end">由 GitHub Actions 每日自动更新</text></svg>