<svg xmlns="http://www.w3.org/2000/svg" width="800" height="260" style="font-family:Segoe UI,PingFang SC,sans-serif"><rect width="800" height="260" rx="12" fill="#141a2b"/><text x="70" y="18" fill="#e6e9f2" font-size="14" font-weight="bold">⭐ Star 增长趋势 · 当前 7</text><line x1="70" y1="220.0" x2="780" y2="220.0" stroke="#232b40"/><text x="62" y="224.0" fill="#8b93a7" font-size="11" text-anchor="end">0</text><line x1="70" y1="156.7" x2="780" y2="156.7" stroke="#232b40"/><text x="62" y="160.7" fill="#8b93a7" font-size="11" text-anchor="end">2</text><line x1="70" y1="93.3" x2="780" y2="93.3" stroke="#232b40"/><text x="62" y="97.3" fill="#8b93a7" font-size="11" text-anchor="end">5</text><line x1="70" y1="30.0" x2="780" y2="30.0" stroke="#232b40"/><text x="62" y="34.0" fill="#8b93a7" font-size="11" text-anchor="end">7</text><polyline points="70.0,220.0 103.8,192.9 137.6,165.7 171.4,138.6 205.2,84.3 239.0,84.3 272.9,84.3 306.7,57.1 340.5,57.1 374.3,57.1 408.1,57.1 441.9,57.1 475.7,57.1 509.5,57.1 543.3,57.1 577.1,57.1 611.0,57.1 644.8,30.0 678.6,30.0 712.4,30.0 746.2,30.0 780.0,30.0" fill="none" stroke="#6c8cff" stroke-width="2.5"/><circle cx="70.0" cy="220.0" r="3.5" fill="#6c8cff"/><circle cx="103.8" cy="192.9" r="3.5" fill="#6c8cff"/><circle cx="137.6" cy="165.7" r="3.5" fill="#6c8cff"/><circle cx="171.4" cy="138.6" r="3.5" fill="#6c8cff"/><circle cx="205.2" cy="84.3" r="3.5" fill="#6c8cff"/><circle cx="239.0" cy="84.3" r="3.5" fill="#6c8cff"/><circle cx="272.9" cy="84.3" r="3.5" fill="#6c8cff"/><circle cx="306.7" cy="57.1" r="3.5" fill="#6c8cff"/><circle cx="340.5" cy="57.1" r="3.5" fill="#6c8cff"/><circle cx="374.3" cy="57.1" r="3.5" fill="#6c8cff"/><circle cx="408.1" cy="57.1" r="3.5" fill="#6c8cff"/><circle cx="441.9" cy="57.1" r="3.5" fill="#6c8cff"/><circle cx="475.7" cy="57.1" r="3.5" fill="#6c8cff"/><circle cx="509.5" cy="57.1" r="3.5" fill="#6c8cff"/><circle cx="543.3" cy="57.1" r="3.5" fill="#6c8cff"/><circle cx="577.1" cy="57.1" r="3.5" fill="#6c8cff"/><circle cx="611.0" cy="57.1" r="3.5" fill="#6c8cff"/><circle cx="644.8" cy="30.0" r="3.5" fill="#6c8cff"/><circle cx="678.6" cy="30.0" r="3.5" fill="#6c8cff"/><circle cx="712.4" cy="30.0" r="3.5" fill="#6c8cff"/><circle cx="746.2" cy="30.0" r="3.5" fill="#6c8cff"/><circle cx="780.0" cy="30.0" r="3.5" fill="#6c8cff"/><text x="70.0" y="246" fill="#8b93a7" font-size="11" text-anchor="middle">2026-08-22</text><text x="441.9" y="246" fill="#8b93a7" font-size="11" text-anchor="middle">2026-09-05</text><text x="780.0" y="246" fill="#8b93a7" font-size="11" text-anchor="middle">2026-09-15</text><text x="780" y="246" fill="#8b93a7" font-size="11" text-anchor="end">由 GitHub Actions 每日自动更新</text></svg>