<svg xmlns="http://www.w3.org/2000/svg" width="800" height="260" style="font-family:Segoe UI,PingFang SC,sans-serif"><rect width="800" height="260" rx="12" fill="#141a2b"/><text x="70" y="18" fill="#e6e9f2" font-size="14" font-weight="bold">⭐ Star 增长趋势 · 当前 12</text><line x1="70" y1="220.0" x2="780" y2="220.0" stroke="#232b40"/><text x="62" y="224.0" fill="#8b93a7" font-size="11" text-anchor="end">0</text><line x1="70" y1="156.7" x2="780" y2="156.7" stroke="#232b40"/><text x="62" y="160.7" fill="#8b93a7" font-size="11" text-anchor="end">4</text><line x1="70" y1="93.3" x2="780" y2="93.3" stroke="#232b40"/><text x="62" y="97.3" fill="#8b93a7" font-size="11" text-anchor="end">8</text><line x1="70" y1="30.0" x2="780" y2="30.0" stroke="#232b40"/><text x="62" y="34.0" fill="#8b93a7" font-size="11" text-anchor="end">12</text><polyline points="70.0,220.0 88.2,204.2 106.4,188.3 124.6,172.5 142.8,140.8 161.0,140.8 179.2,140.8 197.4,125.0 215.6,125.0 233.8,125.0 252.1,125.0 270.3,125.0 288.5,125.0 306.7,125.0 324.9,125.0 343.1,125.0 361.3,125.0 379.5,109.2 397.7,109.2 415.9,109.2 434.1,109.2 452.3,109.2 470.5,109.2 488.7,77.5 506.9,77.5 525.1,77.5 543.3,77.5 561.5,77.5 579.7,77.5 597.9,77.5 616.2,77.5 634.4,77.5 652.6,77.5 670.8,77.5 689.0,77.5 707.2,61.7 725.4,45.8 743.6,30.0 761.8,30.0 780.0,30.0" fill="none" stroke="#6c8cff" stroke-width="2.5"/><circle cx="70.0" cy="220.0" r="3.5" fill="#6c8cff"/><circle cx="88.2" cy="204.2" r="3.5" fill="#6c8cff"/><circle cx="106.4" cy="188.3" r="3.5" fill="#6c8cff"/><circle cx="124.6" cy="172.5" r="3.5" fill="#6c8cff"/><circle cx="142.8" cy="140.8" r="3.5" fill="#6c8cff"/><circle cx="161.0" cy="140.8" r="3.5" fill="#6c8cff"/><circle cx="179.2" cy="140.8" r="3.5" fill="#6c8cff"/><circle cx="197.4" cy="125.0" r="3.5" fill="#6c8cff"/><circle cx="215.6" cy="125.0" r="3.5" fill="#6c8cff"/><circle cx="233.8" cy="125.0" r="3.5" fill="#6c8cff"/><circle cx="252.1" cy="125.0" r="3.5" fill="#6c8cff"/><circle cx="270.3" cy="125.0" r="3.5" fill="#6c8cff"/><circle cx="288.5" cy="125.0" r="3.5" fill="#6c8cff"/><circle cx="306.7" cy="125.0" r="3.5" fill="#6c8cff"/><circle cx="324.9" cy="125.0" r="3.5" fill="#6c8cff"/><circle cx="343.1" cy="125.0" r="3.5" fill="#6c8cff"/><circle cx="361.3" cy="125.0" r="3.5" fill="#6c8cff"/><circle cx="379.5" cy="109.2" r="3.5" fill="#6c8cff"/><circle cx="397.7" cy="109.2" r="3.5" fill="#6c8cff"/><circle cx="415.9" cy="109.2" r="3.5" fill="#6c8cff"/><circle cx="434.1" cy="109.2" r="3.5" fill="#6c8cff"/><circle cx="452.3" cy="109.2" r="3.5" fill="#6c8cff"/><circle cx="470.5" cy="109.2" r="3.5" fill="#6c8cff"/><circle cx="488.7" cy="77.5" r="3.5" fill="#6c8cff"/><circle cx="506.9" cy="77.5" r="3.5" fill="#6c8cff"/><circle cx="525.1" cy="77.5" r="3.5" fill="#6c8cff"/><circle cx="543.3" cy="77.5" r="3.5" fill="#6c8cff"/><circle cx="561.5" cy="77.5" r="3.5" fill="#6c8cff"/><circle cx="579.7" cy="77.5" r="3.5" fill="#6c8cff"/><circle cx="597.9" cy="77.5" r="3.5" fill="#6c8cff"/><circle cx="616.2" cy="77.5" r="3.5" fill="#6c8cff"/><circle cx="634.4" cy="77.5" r="3.5" fill="#6c8cff"/><circle cx="652.6" cy="77.5" r="3.5" fill="#6c8cff"/><circle cx="670.8" cy="77.5" r="3.5" fill="#6c8cff"/><circle cx="689.0" cy="77.5" r="3.5" fill="#6c8cff"/><circle cx="707.2" cy="61.7" r="3.5" fill="#6c8cff"/><circle cx="725.4" cy="45.8" r="3.5" fill="#6c8cff"/><circle cx="743.6" cy="30.0" r="3.5" fill="#6c8cff"/><circle cx="761.8" cy="30.0" r="3.5" fill="#6c8cff"/><circle cx="780.0" cy="30.0" r="3.5" fill="#6c8cff"/><text x="70.0" y="246" fill="#8b93a7" font-size="11" text-anchor="middle">2026-08-22</text><text x="434.1" y="246" fill="#8b93a7" font-size="11" text-anchor="middle">2026-09-14</text><text x="780.0" y="246" fill="#8b93a7" font-size="11" text-anchor="middle">2026-10-03</text><text x="780" y="246" fill="#8b93a7" font-size="11" text-anchor="end">由 GitHub Actions 每日自动更新</text></svg>